<svg width="236" height="108" viewBox="0 0 236 108" fill="none" xmlns="http://www.w3.org/2000/svg">
<path d="M34.3574 58.5075H22.4824L20.6074 61.945H18.4199L27.1699 46.945H29.6699L38.4199 61.945H36.2324L34.3574 58.5075ZM33.4199 56.945L28.4199 48.195L23.4199 56.945H33.4199ZM40.2949 46.945H42.7949L49.6699 54.2888L56.5449 46.945H59.0449L50.6074 55.695V61.945H48.7324V55.695L40.2949 46.945ZM71.8574 53.5075C72.8861 53.5075 73.7682 53.5499 74.5039 53.6345C75.2396 53.7191 75.8581 53.8461 76.3594 54.0154C76.8672 54.1781 77.2708 54.3832 77.5703 54.6306C77.8698 54.878 78.1009 55.1612 78.2637 55.4802C78.4264 55.7927 78.5306 56.1443 78.5762 56.5349C78.6283 56.9255 78.6543 57.3487 78.6543 57.8044C78.6543 58.2601 78.612 58.6898 78.5273 59.0935C78.4492 59.4906 78.306 59.8552 78.0977 60.1872C77.8893 60.5193 77.6061 60.8155 77.248 61.0759C76.89 61.3363 76.4342 61.5577 75.8809 61.74C75.3275 61.9223 74.6602 62.059 73.8789 62.1501C73.1042 62.2478 72.196 62.2966 71.1543 62.2966H68.6543C67.7168 62.2966 66.8965 62.2608 66.1934 62.1892C65.4902 62.1176 64.8848 62.0101 64.377 61.8669C63.8691 61.7172 63.4492 61.5316 63.1172 61.3103C62.7852 61.0824 62.5182 60.8187 62.3164 60.5193C62.1211 60.2133 61.9844 59.8682 61.9062 59.4841C61.8281 59.0935 61.7891 58.6638 61.7891 58.195H63.6641C63.6641 58.781 63.7487 59.24 63.918 59.572C64.0872 59.904 64.3672 60.1547 64.7578 60.3239C65.1484 60.4867 65.6595 60.5909 66.291 60.6364C66.929 60.6755 67.7168 60.695 68.6543 60.695H71.1543C72.248 60.695 73.1562 60.643 73.8789 60.5388C74.6016 60.4346 75.1777 60.2686 75.6074 60.0407C76.0371 59.8129 76.3398 59.5167 76.5156 59.1521C76.6914 58.781 76.7793 58.3318 76.7793 57.8044C76.7793 57.2771 76.7174 56.8376 76.5938 56.4861C76.4766 56.1345 76.2389 55.8545 75.8809 55.6462C75.5293 55.4379 75.0312 55.2914 74.3867 55.2068C73.7422 55.1156 72.8991 55.07 71.8574 55.07H69.2793C68.1335 55.07 67.1504 55.0277 66.3301 54.9431C65.5163 54.8584 64.8327 54.738 64.2793 54.5818C63.7259 54.419 63.2832 54.2204 62.9512 53.9861C62.6191 53.7452 62.3652 53.4717 62.1895 53.1657C62.0202 52.8598 61.9095 52.5212 61.8574 52.1501C61.8053 51.7725 61.7793 51.3656 61.7793 50.9294C61.7793 50.4737 61.8184 50.0505 61.8965 49.6599C61.9811 49.2693 62.1341 48.9177 62.3555 48.6052C62.5768 48.2862 62.8796 48.003 63.2637 47.7556C63.6478 47.5082 64.1393 47.3031 64.7383 47.1404C65.3438 46.9711 66.0697 46.8441 66.916 46.7595C67.7624 46.6749 68.7585 46.6325 69.9043 46.6325H71.7793C72.7168 46.6325 73.5371 46.6683 74.2402 46.74C74.9434 46.8051 75.5488 46.9125 76.0566 47.0622C76.5645 47.2055 76.9844 47.3877 77.3164 47.6091C77.6549 47.8239 77.9219 48.0844 78.1172 48.3904C78.319 48.6898 78.459 49.0316 78.5371 49.4157C78.6152 49.7999 78.6543 50.2263 78.6543 50.695H76.7793C76.7793 50.1091 76.6947 49.6501 76.5254 49.3181C76.3561 48.9861 76.0762 48.7387 75.6855 48.5759C75.2949 48.4066 74.7806 48.3025 74.1426 48.2634C73.5046 48.2178 72.7168 48.195 71.7793 48.195H69.9043C68.6543 48.195 67.6257 48.2406 66.8184 48.3318C66.0111 48.4164 65.373 48.5629 64.9043 48.7712C64.4355 48.9795 64.11 49.2595 63.9277 49.6111C63.7454 49.9626 63.6543 50.4021 63.6543 50.9294C63.6543 51.2549 63.6771 51.5446 63.7227 51.7986C63.7682 52.0525 63.8594 52.2771 63.9961 52.4724C64.1393 52.6612 64.3379 52.8207 64.5918 52.9509C64.8457 53.0811 65.181 53.1885 65.5977 53.2732C66.0143 53.3578 66.5221 53.4196 67.1211 53.4587C67.7266 53.4913 68.446 53.5075 69.2793 53.5075H71.8574ZM81.7793 46.945H83.6543V61.945H81.7793V46.945ZM89.2793 61.945H87.4043V46.945H90.6953L104.445 60.07V46.945H106.32V61.945H103.82L89.2793 48.5075V61.945Z" fill="white"/>
<g filter="url(#filter0_dddddddd_69_266)">
<path d="M129.395 61.945H127.52V59.1325C127.52 58.6768 127.51 58.2862 127.49 57.9607C127.477 57.6286 127.422 57.3454 127.324 57.1111C127.233 56.8767 127.087 56.6879 126.885 56.5446C126.683 56.4014 126.397 56.2907 126.025 56.2126C125.654 56.1345 125.182 56.0824 124.609 56.0564C124.043 56.0238 123.343 56.0075 122.51 56.0075H114.082V61.945H112.207V46.945H122.822C123.968 46.945 124.932 46.9874 125.713 47.072C126.501 47.1501 127.148 47.2706 127.656 47.4333C128.171 47.5961 128.565 47.7979 128.838 48.0388C129.118 48.2797 129.32 48.5629 129.443 48.8884C129.574 49.2139 129.648 49.5785 129.668 49.9821C129.694 50.3858 129.707 50.8318 129.707 51.32C129.707 51.945 129.662 52.4952 129.57 52.9704C129.486 53.4392 129.339 53.8396 129.131 54.1716C128.923 54.5036 128.646 54.7706 128.301 54.9724C127.956 55.1677 127.523 55.3044 127.002 55.3825C127.523 55.4607 127.94 55.5974 128.252 55.7927C128.565 55.988 128.805 56.2419 128.975 56.5544C129.144 56.8669 129.255 57.238 129.307 57.6677C129.365 58.0974 129.395 58.5857 129.395 59.1325V61.945ZM114.082 54.445H122.822C123.656 54.445 124.356 54.432 124.922 54.406C125.495 54.3734 125.967 54.3181 126.338 54.24C126.709 54.1618 126.995 54.0512 127.197 53.9079C127.399 53.7647 127.546 53.5759 127.637 53.3415C127.734 53.1071 127.79 52.8272 127.803 52.5017C127.822 52.1696 127.832 51.7758 127.832 51.32C127.832 50.8969 127.822 50.5323 127.803 50.2263C127.79 49.9203 127.734 49.6631 127.637 49.4548C127.546 49.2465 127.399 49.0805 127.197 48.9568C126.995 48.8331 126.709 48.7387 126.338 48.6736C125.967 48.6019 125.495 48.5564 124.922 48.5368C124.356 48.5173 123.656 48.5075 122.822 48.5075H114.082V54.445ZM132.832 61.945V46.945H147.832V48.5075H134.707V53.5075H147.207V55.07H134.707V60.3825H147.832V61.945H132.832ZM152.207 61.945H150.332V46.945H153.623L167.373 60.07V46.945H169.248V61.945H166.748L152.207 48.5075V61.945ZM189.258 46.945V48.5075H181.758V61.945H179.883V48.5075H172.383V46.945H189.258Z" fill="#1025E8"/>
</g>
<g filter="url(#filter1_dddddddd_69_266)">
<path d="M129.395 61.945H127.52V59.1325C127.52 58.6768 127.51 58.2862 127.49 57.9607C127.477 57.6286 127.422 57.3454 127.324 57.1111C127.233 56.8767 127.087 56.6879 126.885 56.5446C126.683 56.4014 126.397 56.2907 126.025 56.2126C125.654 56.1345 125.182 56.0824 124.609 56.0564C124.043 56.0238 123.343 56.0075 122.51 56.0075H114.082V61.945H112.207V46.945H122.822C123.968 46.945 124.932 46.9874 125.713 47.072C126.501 47.1501 127.148 47.2706 127.656 47.4333C128.171 47.5961 128.565 47.7979 128.838 48.0388C129.118 48.2797 129.32 48.5629 129.443 48.8884C129.574 49.2139 129.648 49.5785 129.668 49.9821C129.694 50.3858 129.707 50.8318 129.707 51.32C129.707 51.945 129.662 52.4952 129.57 52.9704C129.486 53.4392 129.339 53.8396 129.131 54.1716C128.923 54.5036 128.646 54.7706 128.301 54.9724C127.956 55.1677 127.523 55.3044 127.002 55.3825C127.523 55.4607 127.94 55.5974 128.252 55.7927C128.565 55.988 128.805 56.2419 128.975 56.5544C129.144 56.8669 129.255 57.238 129.307 57.6677C129.365 58.0974 129.395 58.5857 129.395 59.1325V61.945ZM114.082 54.445H122.822C123.656 54.445 124.356 54.432 124.922 54.406C125.495 54.3734 125.967 54.3181 126.338 54.24C126.709 54.1618 126.995 54.0512 127.197 53.9079C127.399 53.7647 127.546 53.5759 127.637 53.3415C127.734 53.1071 127.79 52.8272 127.803 52.5017C127.822 52.1696 127.832 51.7758 127.832 51.32C127.832 50.8969 127.822 50.5323 127.803 50.2263C127.79 49.9203 127.734 49.6631 127.637 49.4548C127.546 49.2465 127.399 49.0805 127.197 48.9568C126.995 48.8331 126.709 48.7387 126.338 48.6736C125.967 48.6019 125.495 48.5564 124.922 48.5368C124.356 48.5173 123.656 48.5075 122.822 48.5075H114.082V54.445ZM132.832 61.945V46.945H147.832V48.5075H134.707V53.5075H147.207V55.07H134.707V60.3825H147.832V61.945H132.832ZM152.207 61.945H150.332V46.945H153.623L167.373 60.07V46.945H169.248V61.945H166.748L152.207 48.5075V61.945ZM189.258 46.945V48.5075H181.758V61.945H179.883V48.5075H172.383V46.945H189.258Z" fill="#1025E8"/>
</g>
<path d="M129.395 61.945H127.52V59.1325C127.52 58.6768 127.51 58.2862 127.49 57.9607C127.477 57.6286 127.422 57.3454 127.324 57.1111C127.233 56.8767 127.087 56.6879 126.885 56.5446C126.683 56.4014 126.397 56.2907 126.025 56.2126C125.654 56.1345 125.182 56.0824 124.609 56.0564C124.043 56.0238 123.343 56.0075 122.51 56.0075H114.082V61.945H112.207V46.945H122.822C123.968 46.945 124.932 46.9874 125.713 47.072C126.501 47.1501 127.148 47.2706 127.656 47.4333C128.171 47.5961 128.565 47.7979 128.838 48.0388C129.118 48.2797 129.32 48.5629 129.443 48.8884C129.574 49.2139 129.648 49.5785 129.668 49.9821C129.694 50.3858 129.707 50.8318 129.707 51.32C129.707 51.945 129.662 52.4952 129.57 52.9704C129.486 53.4392 129.339 53.8396 129.131 54.1716C128.923 54.5036 128.646 54.7706 128.301 54.9724C127.956 55.1677 127.523 55.3044 127.002 55.3825C127.523 55.4607 127.94 55.5974 128.252 55.7927C128.565 55.988 128.805 56.2419 128.975 56.5544C129.144 56.8669 129.255 57.238 129.307 57.6677C129.365 58.0974 129.395 58.5857 129.395 59.1325V61.945ZM114.082 54.445H122.822C123.656 54.445 124.356 54.432 124.922 54.406C125.495 54.3734 125.967 54.3181 126.338 54.24C126.709 54.1618 126.995 54.0512 127.197 53.9079C127.399 53.7647 127.546 53.5759 127.637 53.3415C127.734 53.1071 127.79 52.8272 127.803 52.5017C127.822 52.1696 127.832 51.7758 127.832 51.32C127.832 50.8969 127.822 50.5323 127.803 50.2263C127.79 49.9203 127.734 49.6631 127.637 49.4548C127.546 49.2465 127.399 49.0805 127.197 48.9568C126.995 48.8331 126.709 48.7387 126.338 48.6736C125.967 48.6019 125.495 48.5564 124.922 48.5368C124.356 48.5173 123.656 48.5075 122.822 48.5075H114.082V54.445ZM132.832 61.945V46.945H147.832V48.5075H134.707V53.5075H147.207V55.07H134.707V60.3825H147.832V61.945H132.832ZM152.207 61.945H150.332V46.945H153.623L167.373 60.07V46.945H169.248V61.945H166.748L152.207 48.5075V61.945ZM189.258 46.945V48.5075H181.758V61.945H179.883V48.5075H172.383V46.945H189.258Z" fill="#1025E8"/>
<defs>
<filter id="filter0_dddddddd_69_266" x="66.2071" y="0.945038" width="169.051" height="107" filterUnits="userSpaceOnUse" color-interpolation-filters="sRGB">
<feFlood flood-opacity="0" result="BackgroundImageFix"/>
<feColorMatrix in="SourceAlpha" type="matrix" values="0 0 0 0 0 0 0 0 0 0 0 0 0 0 0 0 0 0 127 0" result="hardAlpha"/>
<feOffset/>
<feGaussianBlur stdDeviation="23"/>
<feComposite in2="hardAlpha" operator="out"/>
<feColorMatrix type="matrix" values="0 0 0 0 0.060981 0 0 0 0 0.145711 0 0 0 0 0.908284 0 0 0 1 0"/>
<feBlend mode="normal" in2="BackgroundImageFix" result="effect1_dropShadow_69_266"/>
<feColorMatrix in="SourceAlpha" type="matrix" values="0 0 0 0 0 0 0 0 0 0 0 0 0 0 0 0 0 0 127 0" result="hardAlpha"/>
<feOffset/>
<feGaussianBlur stdDeviation="23"/>
<feComposite in2="hardAlpha" operator="out"/>
<feColorMatrix type="matrix" values="0 0 0 0 0.060981 0 0 0 0 0.145711 0 0 0 0 0.908284 0 0 0 1 0"/>
<feBlend mode="normal" in2="effect1_dropShadow_69_266" result="effect2_dropShadow_69_266"/>
<feColorMatrix in="SourceAlpha" type="matrix" values="0 0 0 0 0 0 0 0 0 0 0 0 0 0 0 0 0 0 127 0" result="hardAlpha"/>
<feOffset/>
<feGaussianBlur stdDeviation="23"/>
<feComposite in2="hardAlpha" operator="out"/>
<feColorMatrix type="matrix" values="0 0 0 0 0.060981 0 0 0 0 0.145711 0 0 0 0 0.908284 0 0 0 1 0"/>
<feBlend mode="normal" in2="effect2_dropShadow_69_266" result="effect3_dropShadow_69_266"/>
<feColorMatrix in="SourceAlpha" type="matrix" values="0 0 0 0 0 0 0 0 0 0 0 0 0 0 0 0 0 0 127 0" result="hardAlpha"/>
<feOffset/>
<feGaussianBlur stdDeviation="23"/>
<feComposite in2="hardAlpha" operator="out"/>
<feColorMatrix type="matrix" values="0 0 0 0 0.060981 0 0 0 0 0.145711 0 0 0 0 0.908284 0 0 0 1 0"/>
<feBlend mode="normal" in2="effect3_dropShadow_69_266" result="effect4_dropShadow_69_266"/>
<feColorMatrix in="SourceAlpha" type="matrix" values="0 0 0 0 0 0 0 0 0 0 0 0 0 0 0 0 0 0 127 0" result="hardAlpha"/>
<feOffset/>
<feGaussianBlur stdDeviation="23"/>
<feComposite in2="hardAlpha" operator="out"/>
<feColorMatrix type="matrix" values="0 0 0 0 0.060981 0 0 0 0 0.145711 0 0 0 0 0.908284 0 0 0 1 0"/>
<feBlend mode="normal" in2="effect4_dropShadow_69_266" result="effect5_dropShadow_69_266"/>
<feColorMatrix in="SourceAlpha" type="matrix" values="0 0 0 0 0 0 0 0 0 0 0 0 0 0 0 0 0 0 127 0" result="hardAlpha"/>
<feOffset/>
<feGaussianBlur stdDeviation="23"/>
<feComposite in2="hardAlpha" operator="out"/>
<feColorMatrix type="matrix" values="0 0 0 0 0.060981 0 0 0 0 0.145711 0 0 0 0 0.908284 0 0 0 1 0"/>
<feBlend mode="normal" in2="effect5_dropShadow_69_266" result="effect6_dropShadow_69_266"/>
<feColorMatrix in="SourceAlpha" type="matrix" values="0 0 0 0 0 0 0 0 0 0 0 0 0 0 0 0 0 0 127 0" result="hardAlpha"/>
<feOffset/>
<feGaussianBlur stdDeviation="23"/>
<feComposite in2="hardAlpha" operator="out"/>
<feColorMatrix type="matrix" values="0 0 0 0 0.060981 0 0 0 0 0.145711 0 0 0 0 0.908284 0 0 0 1 0"/>
<feBlend mode="normal" in2="effect6_dropShadow_69_266" result="effect7_dropShadow_69_266"/>
<feColorMatrix in="SourceAlpha" type="matrix" values="0 0 0 0 0 0 0 0 0 0 0 0 0 0 0 0 0 0 127 0" result="hardAlpha"/>
<feOffset/>
<feGaussianBlur stdDeviation="23"/>
<feComposite in2="hardAlpha" operator="out"/>
<feColorMatrix type="matrix" values="0 0 0 0 0.060981 0 0 0 0 0.145711 0 0 0 0 0.908284 0 0 0 1 0"/>
<feBlend mode="normal" in2="effect7_dropShadow_69_266" result="effect8_dropShadow_69_266"/>
<feBlend mode="normal" in="SourceGraphic" in2="effect8_dropShadow_69_266" result="shape"/>
</filter>
<filter id="filter1_dddddddd_69_266" x="103.707" y="38.445" width="94.0508" height="32" filterUnits="userSpaceOnUse" color-interpolation-filters="sRGB">
<feFlood flood-opacity="0" result="BackgroundImageFix"/>
<feColorMatrix in="SourceAlpha" type="matrix" values="0 0 0 0 0 0 0 0 0 0 0 0 0 0 0 0 0 0 127 0" result="hardAlpha"/>
<feOffset/>
<feGaussianBlur stdDeviation="4.25"/>
<feComposite in2="hardAlpha" operator="out"/>
<feColorMatrix type="matrix" values="0 0 0 0 0.060981 0 0 0 0 0.145711 0 0 0 0 0.908284 0 0 0 0.33 0"/>
<feBlend mode="normal" in2="BackgroundImageFix" result="effect1_dropShadow_69_266"/>
<feColorMatrix in="SourceAlpha" type="matrix" values="0 0 0 0 0 0 0 0 0 0 0 0 0 0 0 0 0 0 127 0" result="hardAlpha"/>
<feOffset/>
<feGaussianBlur stdDeviation="4.25"/>
<feComposite in2="hardAlpha" operator="out"/>
<feColorMatrix type="matrix" values="0 0 0 0 0.060981 0 0 0 0 0.145711 0 0 0 0 0.908284 0 0 0 0.33 0"/>
<feBlend mode="normal" in2="effect1_dropShadow_69_266" result="effect2_dropShadow_69_266"/>
<feColorMatrix in="SourceAlpha" type="matrix" values="0 0 0 0 0 0 0 0 0 0 0 0 0 0 0 0 0 0 127 0" result="hardAlpha"/>
<feOffset/>
<feGaussianBlur stdDeviation="4.25"/>
<feComposite in2="hardAlpha" operator="out"/>
<feColorMatrix type="matrix" values="0 0 0 0 0.060981 0 0 0 0 0.145711 0 0 0 0 0.908284 0 0 0 0.33 0"/>
<feBlend mode="normal" in2="effect2_dropShadow_69_266" result="effect3_dropShadow_69_266"/>
<feColorMatrix in="SourceAlpha" type="matrix" values="0 0 0 0 0 0 0 0 0 0 0 0 0 0 0 0 0 0 127 0" result="hardAlpha"/>
<feOffset/>
<feGaussianBlur stdDeviation="4.25"/>
<feComposite in2="hardAlpha" operator="out"/>
<feColorMatrix type="matrix" values="0 0 0 0 0.060981 0 0 0 0 0.145711 0 0 0 0 0.908284 0 0 0 0.33 0"/>
<feBlend mode="normal" in2="effect3_dropShadow_69_266" result="effect4_dropShadow_69_266"/>
<feColorMatrix in="SourceAlpha" type="matrix" values="0 0 0 0 0 0 0 0 0 0 0 0 0 0 0 0 0 0 127 0" result="hardAlpha"/>
<feOffset/>
<feGaussianBlur stdDeviation="4.25"/>
<feComposite in2="hardAlpha" operator="out"/>
<feColorMatrix type="matrix" values="0 0 0 0 0.060981 0 0 0 0 0.145711 0 0 0 0 0.908284 0 0 0 0.33 0"/>
<feBlend mode="normal" in2="effect4_dropShadow_69_266" result="effect5_dropShadow_69_266"/>
<feColorMatrix in="SourceAlpha" type="matrix" values="0 0 0 0 0 0 0 0 0 0 0 0 0 0 0 0 0 0 127 0" result="hardAlpha"/>
<feOffset/>
<feGaussianBlur stdDeviation="4.25"/>
<feComposite in2="hardAlpha" operator="out"/>
<feColorMatrix type="matrix" values="0 0 0 0 0.060981 0 0 0 0 0.145711 0 0 0 0 0.908284 0 0 0 0.33 0"/>
<feBlend mode="normal" in2="effect5_dropShadow_69_266" result="effect6_dropShadow_69_266"/>
<feColorMatrix in="SourceAlpha" type="matrix" values="0 0 0 0 0 0 0 0 0 0 0 0 0 0 0 0 0 0 127 0" result="hardAlpha"/>
<feOffset/>
<feGaussianBlur stdDeviation="4.25"/>
<feComposite in2="hardAlpha" operator="out"/>
<feColorMatrix type="matrix" values="0 0 0 0 0.060981 0 0 0 0 0.145711 0 0 0 0 0.908284 0 0 0 0.33 0"/>
<feBlend mode="normal" in2="effect6_dropShadow_69_266" result="effect7_dropShadow_69_266"/>
<feColorMatrix in="SourceAlpha" type="matrix" values="0 0 0 0 0 0 0 0 0 0 0 0 0 0 0 0 0 0 127 0" result="hardAlpha"/>
<feOffset/>
<feGaussianBlur stdDeviation="4.25"/>
<feComposite in2="hardAlpha" operator="out"/>
<feColorMatrix type="matrix" values="0 0 0 0 0.060981 0 0 0 0 0.145711 0 0 0 0 0.908284 0 0 0 0.33 0"/>
<feBlend mode="normal" in2="effect7_dropShadow_69_266" result="effect8_dropShadow_69_266"/>
<feBlend mode="normal" in="SourceGraphic" in2="effect8_dropShadow_69_266" result="shape"/>
</filter>
</defs>
</svg>
